<svg width="14" height="16" viewBox="0 0 14 16" fill="none" xmlns="http://www.w3.org/2000/svg">
<path d="M3.75 10H10.25C10.6562 10 11 9.6875 11 9.25C11 8.84375 10.6562 8.5 10.25 8.5H3.75C3.3125 8.5 3 8.84375 3 9.25C3 9.6875 3.3125 10 3.75 10ZM3.75 13H7.25C7.65625 13 8 12.6875 8 12.25C8 11.8438 7.65625 11.5 7.25 11.5H3.75C3.3125 11.5 3 11.8438 3 12.25C3 12.6875 3.3125 13 3.75 13ZM3.75 7H10.25C10.6562 7 11 6.6875 11 6.25C11 5.84375 10.6562 5.5 10.25 5.5H3.75C3.3125 5.5 3 5.84375 3 6.25C3 6.6875 3.3125 7 3.75 7ZM12 0H2C0.875 0 0 0.90625 0 2V14C0 15.125 0.875 16 2 16H12C13.0938 16 14 15.125 14 14V2C14 0.90625 13.0938 0 12 0ZM12.5 14C12.5 14.2812 12.25 14.5 12 14.5H2C1.71875 14.5 1.5 14.2812 1.5 14V4H12.5V14Z" fill="#808B9A"/>
</svg>
