<svg width="14" height="16" viewBox="0 0 14 16" fill="none" xmlns="http://www.w3.org/2000/svg">
<path d="M3.5 10H10.5C10.75 10 11 9.78125 11 9.5C11 9.25 10.75 9 10.5 9H3.5C3.21875 9 3 9.25 3 9.5C3 9.78125 3.21875 10 3.5 10ZM3.5 7H10.5C10.75 7 11 6.78125 11 6.5C11 6.25 10.75 6 10.5 6H3.5C3.21875 6 3 6.25 3 6.5C3 6.78125 3.21875 7 3.5 7ZM3.5 13H7.5C7.75 13 8 12.7812 8 12.5C8 12.25 7.75 12 7.5 12H3.5C3.21875 12 3 12.25 3 12.5C3 12.7812 3.21875 13 3.5 13ZM12 0H2C0.875 0 0 0.90625 0 2V14C0 15.125 0.875 16 2 16H12C13.0938 16 14 15.125 14 14V2C14 0.90625 13.0938 0 12 0ZM13 14C13 14.5625 12.5312 15 12 15H2C1.4375 15 1 14.5625 1 14V4H13V14ZM13 3H1V2C1 1.46875 1.4375 1 2 1H12C12.5312 1 13 1.46875 13 2V3Z" fill="#808B9A"/>
</svg>
