<svg width="14" height="14" viewBox="0 0 14 14" fill="none" xmlns="http://www.w3.org/2000/svg">
<path d="M6 4C5.4375 4 5 4.46875 5 5V5.25C5 5.53125 4.75 5.75 4.5 5.75C4.21875 5.75 4 5.53125 4 5.25V5C4 3.90625 4.875 3 6 3H8C9.09375 3 10 3.90625 10 5V5.15625C10 5.875 9.625 6.53125 9 6.875L7.5 7.8125V8.25C7.5 8.53125 7.25 8.75 7 8.75C6.71875 8.75 6.5 8.53125 6.5 8.25V7.5C6.5 7.34375 6.5625 7.1875 6.71875 7.09375L8.5 6.03125C8.8125 5.84375 8.96875 5.53125 8.96875 5.15625V5C8.96875 4.46875 8.53125 4 7.96875 4H6ZM6.25 10.5C6.25 10.0938 6.5625 9.75 7 9.75C7.40625 9.75 7.75 10.0938 7.75 10.5C7.75 10.9375 7.40625 11.25 7 11.25C6.5625 11.25 6.25 10.9375 6.25 10.5ZM3.5 2.75C3.5 3.1875 3.15625 3.5 2.75 3.5C2.3125 3.5 2 3.1875 2 2.75C2 2.34375 2.3125 2 2.75 2C3.15625 2 3.5 2.34375 3.5 2.75ZM10.5 2.75C10.5 2.34375 10.8125 2 11.25 2C11.6562 2 12 2.34375 12 2.75C12 3.1875 11.6562 3.5 11.25 3.5C10.8125 3.5 10.5 3.1875 10.5 2.75ZM3.5 11.25C3.5 11.6875 3.15625 12 2.75 12C2.3125 12 2 11.6875 2 11.25C2 10.8438 2.3125 10.5 2.75 10.5C3.15625 10.5 3.5 10.8438 3.5 11.25ZM10.5 11.25C10.5 10.8438 10.8125 10.5 11.25 10.5C11.6562 10.5 12 10.8438 12 11.25C12 11.6875 11.6562 12 11.25 12C10.8125 12 10.5 11.6875 10.5 11.25ZM12 0C13.0938 0 14 0.90625 14 2V12C14 13.125 13.0938 14 12 14H2C0.875 14 0 13.125 0 12V2C0 0.90625 0.875 0 2 0H12ZM12 1H2C1.4375 1 1 1.46875 1 2V12C1 12.5625 1.4375 13 2 13H12C12.5312 13 13 12.5625 13 12V2C13 1.46875 12.5312 1 12 1Z" fill="#808B9A"/>
</svg>
